{"title":"Marmaduke 2010 CAM Xvid-NoGrp","uid":5641583,"size":751669900,"categoryP":"video","categoryS":"movies","magnet":"?xt=urn:btih:f0021900403544f8b754b201af7248b432d640cc&amp;dn=Marmaduke+2010+CAM+Xvid-NoGrp&amp;tr=udp%3A%2F%2Ftracker.openbittorrent.com%3A80&amp;tr=udp%3A%2F%2Fopen.demonii.com%3A1337&amp;tr=udp%3A%2F%2Ftracker.coppersurfer.tk%3A6969&amp;tr=udp%3A%2F%2Fexodus.desync.com%3A6969","seeders":0,"leechers":0,"uploader":"IwannaFan2","files":3,"time":1277130738,"description":"Filename:\nMarmaduke 2010 CAM Xvid-NoGrp\n &lt;a href=&quot;\nhttp://www.imdb.com/title/tt1392197/&quot; rel=&quot;nofollow&quot; target=&quot;_NEW&quot;&gt;\nhttp://www.imdb.com/title/tt1392197/&lt;/a&gt;\n\nPlot\n\nMarmaduke, the world's most lovable Great Dane, leaps from comic strip fame (appearing in 600 newspapers in over 20 countries) to big screen stardom in this family comedy event. A suburban family moves to a new neighborhood in Orange County, California with their large yet lovable Great Dane, who has a tendency to wreak havoc in his own oblivious way. But its not all living large for the Duke, who finds that fitting in with his new four-legged friends - and a potential romantic interest - isn't always easy for a super-sized teenage dog. Owen Wilson gives the beloved Great Dane his voice in the film, which also features the voices of Fergie, George Lopez, Emma Stone and Kiefer Sutherland.\n\nVideo\nID                               : 224 (0xE0)\nFormat                           : MPEG Video\nFormat version                   : Version 2\nFormat profile                   : Main@Main\nFormat settings, Matrix          : Default\nDuration                         : 1h 21mn\nBit rate mode                    : Variable\nBit rate                         : 1 712 Kbps\nNominal bit rate                 : 9 586 Kbps\nWidth                            : 352 pixels\nHeight                           : 480 pixels\nDisplay aspect ratio             : 4:3\nFrame rate                       : 29.970 fps\nColorimetry                      : 4:2:0\nScan type                        : Progressive\nScan order                       : Bottom Field First\nBits/(Pixel*Frame)               : 0.338\nStream size                      : 994 MiB (86%)\n\nAudio\nID                               : 128 (0x80)\nFormat                           : AC-3\nFormat/Info                      : Audio Coding 3\nDuration                         : 1h 21mn\nBit rate mode                    : Constant\nBit rate                         : 192 Kbps\nChannel(s)                       : 2 channels\nChannel positions                : L R\nSampling rate                    : 48.0 KHz\nVideo delay                      : -34ms\nStream size                      : 112 MiB (10%)\n\nGeneral:\nUsed SLUGGER cam as source\nlitterally just a quick re-encode into xvid avi.","torrent":{"xt":"urn:btih:f0021900403544f8b754b201af7248b432d640cc","amp;dn":"Marmaduke+2010+CAM+Xvid-NoGrp","amp;tr":["udp%3A%2F%2Ftracker.openbittorrent.com%3A80","udp%3A%2F%2Fopen.demonii.com%3A1337","udp%3A%2F%2Ftracker.coppersurfer.tk%3A6969","udp%3A%2F%2Fexodus.desync.com%3A6969"],"infoHash":"f0021900403544f8b754b201af7248b432d640cc","infoHashBuffer":{"type":"Buffer","data":[240,2,25,0,64,53,68,248,183,84,178,1,175,114,72,180,50,214,64,204]},"announce":[],"urlList":[]}}